<svg xmlns="http://www.w3.org/2000/svg" width="36" height="36" viewBox="0 0 36 36" fill="none">
  <defs>
    <linearGradient id="logo-grad" x1="0%" y1="0%" x2="100%" y2="100%">
      <stop offset="0%" stop-color="#3b82f6" />
      <stop offset="100%" stop-color="#8b5cf6" />
    </linearGradient>
  </defs>
  <rect width="36" height="36" rx="10" ry="10" fill="url(#logo-grad)" />
  <g transform="translate(6, 6)" stroke="#ffffff" stroke-width="2" stroke-linecap="round" stroke-linejoin="round">
    <path d="M21.42 10.922a2 2 0 0 0-.019-3.838L12.83 4.18a2 2 0 0 0-1.66 0L2.6 7.08a2 2 0 0 0 0 3.832l8.57 3.908a2 2 0 0 0 1.66 0z"/>
    <path d="M22 10v6"/>
    <path d="M6 12.5V16a6 3 0 0 0 12 0v-3.5"/>
  </g>
</svg>
